<svg width="32" height="32" viewBox="0 0 32 32" fill="none" xmlns="http://www.w3.org/2000/svg">
  <defs>
    <linearGradient id="docGradient" x1="0%" y1="0%" x2="100%" y2="100%">
      <stop offset="0%" style="stop-color:#667eea;stop-opacity:1" />
      <stop offset="100%" style="stop-color:#764ba2;stop-opacity:1" />
    </linearGradient>
    <linearGradient id="chartGradient" x1="0%" y1="0%" x2="100%" y2="100%">
      <stop offset="0%" style="stop-color:#4facfe;stop-opacity:1" />
      <stop offset="100%" style="stop-color:#00f2fe;stop-opacity:1" />
    </linearGradient>
  </defs>
  
  <!-- Document background -->
  <rect x="4" y="2" width="20" height="26" rx="2" fill="url(#docGradient)" stroke="rgba(255,255,255,0.2)" stroke-width="0.5"/>
  
  <!-- Document lines -->
  <rect x="7" y="6" width="10" height="1.5" rx="0.5" fill="rgba(255,255,255,0.8)"/>
  <rect x="7" y="9" width="14" height="1.5" rx="0.5" fill="rgba(255,255,255,0.6)"/>
  <rect x="7" y="12" width="8" height="1.5" rx="0.5" fill="rgba(255,255,255,0.6)"/>
  
  <!-- Mermaid chart symbol -->
  <g fill="url(#chartGradient)">
    <!-- Flow nodes -->
    <circle cx="9" cy="18" r="1.5" fill="rgba(255,255,255,0.9)"/>
    <circle cx="16" cy="18" r="1.5" fill="rgba(255,255,255,0.9)"/>
    <circle cx="23" cy="18" r="1.5" fill="rgba(255,255,255,0.9)"/>
    
    <!-- Flow connections -->
    <rect x="10.5" y="17.5" width="4" height="1" rx="0.5" fill="rgba(255,255,255,0.7)"/>
    <rect x="17.5" y="17.5" width="4" height="1" rx="0.5" fill="rgba(255,255,255,0.7)"/>
    
    <!-- Arrow heads -->
    <polygon points="14.5,17 15.5,18 14.5,19" fill="rgba(255,255,255,0.7)"/>
    <polygon points="21.5,17 22.5,18 21.5,19" fill="rgba(255,255,255,0.7)"/>
  </g>
  
  <!-- Accent dots for modern look -->
  <circle cx="26" cy="6" r="1" fill="#4facfe" opacity="0.8"/>
  <circle cx="28" cy="8" r="0.5" fill="#00f2fe" opacity="0.6"/>
</svg>